<?xml version="1.0" encoding="utf-8"?>
<!-- Generator: Adobe Illustrator 26.0.1, SVG Export Plug-In . SVG Version: 6.00 Build 0)  -->
<svg version="1.1" id="Layer_1" xmlns="http://www.w3.org/2000/svg" xmlns:xlink="http://www.w3.org/1999/xlink" x="0px" y="0px"
	 viewBox="0 0 595 842" style="enable-background:new 0 0 595 842;" xml:space="preserve">
<style type="text/css">
	.st0{fill:#D8EAFF;}
	.st1{clip-path:url(#SVGID_00000146488712771969402410000004157313713288329109_);}
	.st2{clip-path:url(#SVGID_00000146488712771969402410000004157313713288329109_);fill:#3071A7;}
	
		.st3{clip-path:url(#SVGID_00000146488712771969402410000004157313713288329109_);fill:none;stroke:#3071A7;stroke-width:0.75;stroke-miterlimit:10;}
	
		.st4{clip-path:url(#SVGID_00000146488712771969402410000004157313713288329109_);fill:none;stroke:#000000;stroke-width:0.5;stroke-miterlimit:10;}
	.st5{fill:none;stroke:#3071A7;stroke-width:0.75;stroke-miterlimit:10;}
	.st6{fill:none;stroke:#3071A7;stroke-miterlimit:10;}
	.st7{fill:none;stroke:#3071A7;stroke-width:0.5;stroke-miterlimit:10;}
	.st8{fill:#3071A7;stroke:#3071A7;stroke-miterlimit:10;}
	.st9{fill:#D8EAFF;stroke:#3071A7;stroke-miterlimit:10;}
	.st10{fill:#3071A7;}
	.st11{font-family:'Montserrat-Regular';}
	.st12{font-size:12px;}
</style>
<rect x="102.22" y="45.35" class="st0" width="445.19" height="767.94"/>
<polygon class="st8" points="272.76,240.82 272.76,246.05 225.36,246.05 225.22,68.38 487.44,68.84 487.66,780.69 161.97,780.69 
	161.97,776.02 225.43,775.81 225.43,571.35 161.97,571.37 161.97,566.34 304.78,566.61 304.85,571.28 230.24,571.42 230.31,648.41 
	300.02,648.5 300.13,587.27 304.96,587.22 304.77,653 230.29,653.15 230.39,705.2 284.03,705.2 284.03,710.02 230.34,710.02 
	230.34,775.77 299.92,775.77 299.92,705.25 304.78,705.25 304.78,775.82 482.67,775.82 482.67,669.7 397.18,669.7 397.11,759.94 
	392.17,759.94 392.17,587.27 397.06,587.27 397.06,664.84 482.61,664.77 482.61,571.44 392.39,571.33 392.31,566.54 392.26,490.67 
	482.31,490.58 482.63,423.79 392.36,423.71 392.36,418.92 482.64,418.92 482.64,344.38 397.19,344.38 397.19,402.94 392.34,402.94 
	392.34,261.94 397.06,261.94 397.06,339.5 482.58,339.5 482.58,245.91 392.31,245.91 392.31,241.31 482.56,241.31 482.56,162.32 
	451.66,162.32 451.66,157.28 482.63,157.28 482.63,73.53 439.4,73.53 439.4,162.04 434.48,162.04 434.48,73.44 333.89,73.44 
	333.89,157.27 420.15,157.27 420.15,162.03 356.61,162.33 356.61,211.63 306.6,211.63 306.6,162.24 246.02,162.24 246.02,157.44 
	328.73,157.44 328.73,73.45 230.29,73.45 230.29,241.17 "/>
<polygon class="st8" points="162.2,490.05 162.2,494.82 255.47,494.82 255.47,550.85 260.12,550.85 260.35,494.97 294.25,494.87 
	294.25,450.6 260.19,450.6 260.19,431.9 255.46,431.9 255.46,490.04 230.21,490.04 230.21,423.66 304.73,423.66 304.73,418.95 
	230.28,418.95 230.28,341.28 299.99,341.28 299.99,403.12 304.8,403.12 304.8,336.55 230.19,336.55 230.19,261.89 225.48,261.89 
	225.48,490.1 "/>
<polygon class="st6" points="225.05,68.38 225.05,241.69 161.97,241.69 161.97,69.02 "/>
<rect x="162.2" y="336.77" class="st6" width="63.21" height="153.34"/>
<rect x="162.2" y="570.46" class="st6" width="63.21" height="82.63"/>
<rect x="162.2" y="705.48" class="st6" width="63.21" height="73.47"/>
<rect x="392.72" y="495.71" class="st9" width="89.19" height="70.35"/>
<polygon class="st6" points="392.72,495.07 392.72,532.08 392.72,566.7 464.72,566.7 464.72,495.07 "/>
<g>
	<line class="st6" x1="392.72" y1="532.56" x2="464.17" y2="532.56"/>
	<line class="st6" x1="464.17" y1="495.37" x2="464.17" y2="566.64"/>
	<path class="st6" d="M456.02,495.37c-0.41,0.18-0.09,71.27-0.09,71.27"/>
	<line class="st6" x1="447.86" y1="495.83" x2="447.86" y2="567.1"/>
	<polyline class="st6" points="440.08,567.1 440.08,532.56 440.08,495.83 	"/>
	<line class="st6" x1="432.11" y1="495.83" x2="432.11" y2="567.1"/>
	<line class="st6" x1="424.14" y1="567.1" x2="424.14" y2="495.83"/>
	<line class="st6" x1="416.35" y1="495.83" x2="416.35" y2="566.64"/>
	<line class="st6" x1="408.11" y1="567.1" x2="408.11" y2="495.37"/>
	<line class="st6" x1="400.23" y1="495.83" x2="400.23" y2="567.1"/>
</g>
<g>
	<line class="st6" x1="161.74" y1="679.16" x2="225.13" y2="679.16"/>
	<line class="st6" x1="225.39" y1="653.08" x2="225.39" y2="705.24"/>
	<path class="st6" d="M217.97,653.08c-0.41,0.13-0.09,52.15-0.09,52.15"/>
	<line class="st6" x1="209.82" y1="653.42" x2="209.82" y2="705.57"/>
	<polyline class="st6" points="202.03,705.57 202.03,680.3 202.03,653.42 	"/>
	<line class="st6" x1="194.06" y1="653.42" x2="194.06" y2="705.57"/>
	<line class="st6" x1="186.1" y1="705.57" x2="186.1" y2="653.42"/>
	<line class="st6" x1="178.31" y1="653.42" x2="178.31" y2="705.24"/>
	<line class="st6" x1="169.06" y1="705.57" x2="169.06" y2="653.08"/>
	<line class="st6" x1="162.19" y1="653.42" x2="162.19" y2="705.57"/>
</g>
<g>
	<line class="st6" x1="162.01" y1="288.39" x2="225.4" y2="288.39"/>
	<line class="st6" x1="225.66" y1="242" x2="225.66" y2="336.72"/>
	<path class="st6" d="M218.15,242.62c-0.41,0.24-0.09,94.1-0.09,94.1"/>
	<line class="st6" x1="210.09" y1="242" x2="210.09" y2="336.72"/>
	<polyline class="st6" points="202.15,336.69 202.15,290.79 202.15,241.98 	"/>
	<line class="st6" x1="194.24" y1="242" x2="194.24" y2="336.72"/>
	<line class="st6" x1="186.37" y1="336.72" x2="186.37" y2="242"/>
	<line class="st6" x1="178.37" y1="242.12" x2="178.37" y2="336.56"/>
	<line class="st6" x1="162.46" y1="241.56" x2="162.46" y2="336.56"/>
</g>
<rect x="310.92" y="161.45" class="st0" width="40.85" height="45.25"/>
<rect x="259.98" y="454.35" class="st0" width="30.92" height="35.76"/>
<text transform="matrix(6.123234e-17 1 -1 6.123234e-17 458.0283 87.7231)" class="st10 st11 st12">TOILET</text>
<text transform="matrix(6.123234e-17 1 -1 6.123234e-17 437.3115 267.6315)"><tspan x="0" y="0" class="st10 st11 st12">STAFF</tspan><tspan x="0" y="14.4" class="st10 st11 st12">ROOM</tspan></text>
<text transform="matrix(6.123234e-17 1 -1 6.123234e-17 378.1377 95.3196)" class="st10 st11 st12">CLASS</text>
<text transform="matrix(6.123234e-17 1 -1 6.123234e-17 437.3115 358.4409)" class="st10 st11 st12">CLASS</text>
<text transform="matrix(6.123234e-17 1 -1 6.123234e-17 259.9854 359.0648)" class="st10 st11 st12">ROOM</text>
<text transform="matrix(6.123234e-17 1 -1 6.123234e-17 237.9229 437.71)" class="st10 st11 st12">ROOM</text>
<text transform="matrix(6.123234e-17 1 -1 6.123234e-17 194.2451 512.5544)" class="st10 st11 st12">ROOM</text>
<text transform="matrix(6.123234e-17 1 -1 6.123234e-17 259.9854 594.2404)" class="st10 st11 st12">CLASS</text>
<text transform="matrix(6.123234e-17 1 -1 6.123234e-17 259.8896 722.9138)" class="st10 st11 st12">ROOM</text>
<text transform="matrix(6.123234e-17 1 -1 6.123234e-17 440.0771 690.5723)" class="st10 st11 st12">COM LAB</text>
<text transform="matrix(6.123234e-17 1 -1 6.123234e-17 440.0771 602.1448)" class="st10 st11 st12">CLASS</text>
<text transform="matrix(6.123234e-17 1 -1 6.123234e-17 281.7764 95.3196)" class="st10 st11 st12">CLASS</text>
<line class="st6" x1="161.97" y1="481.97" x2="161.97" y2="575.95"/>
</svg>
